# xmcd
#
# Track frame offsets:
#	150
#	116732
#	165257
#
# Disc length: 2798 seconds
#
# Revision: 0
# Processed by: cddbd v1.5.2PL0 Copyright (c) Steve Scherf et al.
# Submitted via: EZCDAudioConverter 6.0.9.1
#
DISCID=1a0aec03
DTITLE=Christian Ferras, Berliner Philharmoniker, Herbert von Karajan - CD47_B
DTITLE=eethoven Violin Concerto Op.61
DYEAR=1967
DGENRE=Orchestral
TTITLE0=Herbert von Karajan/Christian Ferras/Berlin Philharmonic Orchestra - B
TTITLE0=eethoven Violin Concerto in D major, Op. 61: 1. Allegro ma non troppo
TTITLE1=Herbert von Karajan/Christian Ferras/Berlin Philharmonic Orchestra - B
TTITLE1=eethoven Violin Concerto in D major, Op. 61: 2. Larghetto
TTITLE2=Christian Ferras, Ludwig van Beethoven - Beethoven Violin Concerto in 
TTITLE2=D major, Op. 61: 3. Rondo. Allegro
EXTD=
EXTT0=
EXTT1=
EXTT2=
PLAYORDER=
